<svg width="21" height="21" viewBox="0 0 21 21" fill="none" xmlns="http://www.w3.org/2000/svg">
<path fill-rule="evenodd" clip-rule="evenodd" d="M0 3.5C0 2.57174 0.368749 1.6815 1.02513 1.02513C1.6815 0.368749 2.57174 0 3.5 0H17.5C18.4283 0 19.3185 0.368749 19.9749 1.02513C20.6313 1.6815 21 2.57174 21 3.5V17.5C21 18.4283 20.6313 19.3185 19.9749 19.9749C19.3185 20.6313 18.4283 21 17.5 21H3.5C2.57174 21 1.6815 20.6313 1.02513 19.9749C0.368749 19.3185 0 18.4283 0 17.5V3.5ZM11.6667 5.83333C11.6667 5.52391 11.5437 5.22717 11.325 5.00838C11.1062 4.78958 10.8094 4.66667 10.5 4.66667C10.1906 4.66667 9.89383 4.78958 9.67504 5.00838C9.45625 5.22717 9.33333 5.52391 9.33333 5.83333V15.1667C9.33333 15.4761 9.45625 15.7728 9.67504 15.9916C9.89383 16.2104 10.1906 16.3333 10.5 16.3333C10.8094 16.3333 11.1062 16.2104 11.325 15.9916C11.5437 15.7728 11.6667 15.4761 11.6667 15.1667V5.83333ZM7 9.33333C7 9.02391 6.87708 8.72717 6.65829 8.50838C6.4395 8.28958 6.14275 8.16667 5.83333 8.16667C5.52391 8.16667 5.22717 8.28958 5.00838 8.50838C4.78958 8.72717 4.66667 9.02391 4.66667 9.33333V15.1667C4.66667 15.4761 4.78958 15.7728 5.00838 15.9916C5.22717 16.2104 5.52391 16.3333 5.83333 16.3333C6.14275 16.3333 6.4395 16.2104 6.65829 15.9916C6.87708 15.7728 7 15.4761 7 15.1667V9.33333ZM16.3333 12.8333C16.3333 12.5239 16.2104 12.2272 15.9916 12.0084C15.7728 11.7896 15.4761 11.6667 15.1667 11.6667C14.8572 11.6667 14.5605 11.7896 14.3417 12.0084C14.1229 12.2272 14 12.5239 14 12.8333V15.1667C14 15.4761 14.1229 15.7728 14.3417 15.9916C14.5605 16.2104 14.8572 16.3333 15.1667 16.3333C15.4761 16.3333 15.7728 16.2104 15.9916 15.9916C16.2104 15.7728 16.3333 15.4761 16.3333 15.1667V12.8333Z" fill="white"/>
</svg>
